<svg width="39" height="24" viewBox="0 0 39 24" fill="none" xmlns="http://www.w3.org/2000/svg">
<g clip-path="url(#clip0_7789_32436)">
<path d="M25.6303 6.85759H26.6543V5.89963H25.6098C24.8674 5.89963 24.3195 6.06268 23.9714 6.41937C23.5055 6.89835 23.3877 7.50472 23.3877 8.16714C23.3877 8.97733 23.5874 9.49198 23.9663 9.87415C24.3451 10.2512 25.0107 10.3684 25.533 10.3684H26.7976L27.2072 9.36969H29.4498L29.8696 10.3684H32.0661V7.01046L34.1141 10.3684H35.6399V5.89453H34.5339V9.013L32.6344 5.89453H30.9909V10.1289L29.1631 5.89453H27.5451L26.0245 9.41555H25.5381C25.2514 9.41555 24.9493 9.3646 24.7855 9.18625C24.5858 8.96205 24.4885 8.61555 24.4885 8.13657C24.4885 7.66778 24.6165 7.31109 24.8008 7.12256C25.0159 6.91364 25.236 6.85759 25.6303 6.85759ZM28.3387 6.65886L29.0863 8.4423H27.5963L28.3387 6.65886Z" fill="#2A2A2A"/>
<path d="M29.9726 14.568V13.6406H26.3682V18.1196H29.9726V17.1922L27.4434 17.1871V16.2954H29.9112V15.3833H27.4434V14.568H29.9726Z" fill="#2A2A2A"/>
<path d="M3.84 9.37164L4.25472 10.3755H6.4512V6.86464L8.01792 10.3704H8.96512L10.5318 6.86464L10.537 10.3704H11.6429V5.89648H9.84576L8.5504 8.93343L7.13728 5.89648H5.376V10.136L3.53792 5.89648H1.93536L0 10.3704H1.17248L1.59232 9.37164H3.84ZM2.73408 6.66082L3.47136 8.44426H2.00192L2.73408 6.66082Z" fill="#2A2A2A"/>
<path d="M22.8606 5.89648H21.7598V10.3704H22.8606V5.89648Z" fill="#2A2A2A"/>
<path d="M16.0459 6.82897V5.89648H12.4414V10.3704H16.0459V9.44298H13.5217V8.55126H15.9896V7.63406H13.5217V6.82897H16.0459Z" fill="#2A2A2A"/>
<path d="M21.1306 7.09827C21.1306 6.59891 20.9258 6.30846 20.5827 6.10464C20.2346 5.90591 19.8301 5.89062 19.2771 5.89062H16.7939V10.3645H17.8691V8.73903H19.0263C19.4154 8.73903 19.656 8.7747 19.8147 8.93266C20.0093 9.14668 19.9837 9.53394 19.9837 9.804L19.9888 10.3696H21.0794V9.48808C21.0794 9.09063 21.0538 8.8919 20.9002 8.6677C20.808 8.53521 20.6032 8.37725 20.3677 8.29062C20.6493 8.17852 21.1306 7.81164 21.1306 7.09827ZM19.7635 7.76578C19.6151 7.8575 19.441 7.8575 19.2311 7.8575H17.9203V6.86387H19.2515C19.441 6.86387 19.6355 6.87406 19.7635 6.9454C19.9018 7.01164 19.9888 7.14922 19.9888 7.34285C19.9888 7.53649 19.9069 7.69445 19.7635 7.76578Z" fill="#2A2A2A"/>
<path d="M32.7318 17.1565H30.6378V18.1145H32.7421C33.8275 18.1145 34.4368 17.6661 34.4368 16.703C34.4368 16.2444 34.3242 15.9693 34.1142 15.7553C33.8736 15.5107 33.4691 15.4088 32.8752 15.3935L32.2966 15.3782C32.1123 15.3782 31.9894 15.368 31.8768 15.3272C31.7437 15.2814 31.6413 15.1642 31.6413 14.996C31.6413 14.8534 31.6874 14.7464 31.8051 14.675C31.9126 14.5986 32.0406 14.5935 32.2352 14.5935H34.2166V13.6406H32.0509C30.9194 13.6406 30.5098 14.3285 30.5098 14.9757C30.5098 16.3922 31.7744 16.326 32.783 16.3616C32.9725 16.3616 33.0851 16.3922 33.167 16.4585C33.2438 16.5196 33.3002 16.6215 33.3002 16.754C33.3002 16.8763 33.249 16.9731 33.1722 17.0444C33.08 17.1311 32.9366 17.1565 32.7318 17.1565Z" fill="#2A2A2A"/>
<path d="M19.0924 13.6348H15.6416L14.2694 15.1023L12.9433 13.6348H8.60156V18.1137H12.8768L14.2592 16.6309L15.5904 18.1137H17.6896V16.6106H19.0361C19.9782 16.6106 20.9152 16.3558 20.9152 15.1125C20.9152 13.8743 19.9526 13.6399 19.0924 13.6348ZM12.3289 17.1711H9.67676V16.2794H12.0473V15.3672H9.67676V14.552H12.3852L13.568 15.8564L12.3289 17.1711ZM16.6092 17.6857L14.9504 15.8615L16.6092 14.0934V17.6857ZM19.0566 15.6934H17.664V14.552H19.072C19.4611 14.552 19.7324 14.7099 19.7324 15.1023C19.7324 15.4895 19.4713 15.6934 19.0566 15.6934Z" fill="#2A2A2A"/>
<path d="M35.9985 14.6394C36.106 14.563 36.2391 14.5579 36.4337 14.5579H38.3998V13.6152H36.2545C35.1178 13.6152 34.7031 14.3031 34.7031 14.9503C34.7031 16.3668 35.9678 16.3006 36.9815 16.3363C37.1658 16.3363 37.2836 16.3668 37.3604 16.4331C37.4423 16.4942 37.4935 16.5961 37.4935 16.7286C37.4935 16.8509 37.4423 16.9477 37.3655 17.0191C37.2785 17.1057 37.1351 17.1312 36.9303 17.1312H34.8516V18.0891H36.9354C37.6215 18.0891 38.1335 17.9006 38.3946 17.5235V17.5184H38.3998V15.8318C38.369 15.791 38.3434 15.7554 38.2974 15.7197C38.0567 15.4751 37.6625 15.3732 37.0737 15.3579L36.49 15.3426C36.3108 15.3426 36.1879 15.3324 36.0753 15.2917C35.937 15.2458 35.8398 15.1286 35.8398 14.9605C35.8398 14.8178 35.8858 14.7108 35.9985 14.6394Z" fill="#2A2A2A"/>
<path d="M38.3949 18.6752C37.9648 18.8841 37.3965 18.9656 36.8128 18.9656H34.0122V18.5682C33.6896 18.8229 33.1008 18.9656 32.5427 18.9656H23.7261V17.5236C23.7261 17.3452 23.7107 17.3401 23.5315 17.3401H23.3933V18.9707H20.4902V17.2841C20.0038 17.493 19.4509 17.5083 18.985 17.5032H18.6368V18.9707L15.1194 18.9656L14.2541 17.9924L13.3376 18.9656H7.6288V12.7185H13.4502L14.2848 13.6764L15.1757 12.7236H19.072C19.5226 12.7236 20.2598 12.7694 20.5926 13.0904V12.7236H24.0742C24.4019 12.7236 25.1085 12.7898 25.5283 13.0904V12.7236H30.8122V13.0904C31.0733 12.8408 31.6314 12.7236 32.1024 12.7236H35.0566V13.0904C35.369 12.8662 35.8042 12.7236 36.4083 12.7236H38.4V2.03822C38.4 0.912102 37.4835 0 36.352 0H2.048C0.91648 0 0 0.912102 0 2.03822V7.9949L1.3056 5.0293H4.1216L4.48512 5.76815V5.0293H7.78752L8.50944 6.63949L9.21088 5.0293H19.6966C20.1728 5.0293 20.6029 5.12102 20.9152 5.39618V5.0293H23.7824V5.39618C24.279 5.12611 24.8883 5.0293 25.5846 5.0293H29.7421L30.1261 5.76815V5.0293H33.2032L33.623 5.76815V5.0293H36.6234V11.2713H33.5923L33.0189 10.3287V11.2713H29.2352L28.8256 10.2777H27.8886L27.4688 11.2713H25.5078C24.7398 11.2713 24.151 11.0879 23.7773 10.8892V11.2713H19.113V9.85478C19.113 9.65605 19.0771 9.64586 18.9542 9.64076H18.7802L18.7853 11.2713H9.76384V10.5019L9.44128 11.2764H7.55712L7.23456 10.5121V11.2713H3.60448L3.18976 10.2777H2.25792L1.8432 11.2713H0V21.9618C0 23.0879 0.91648 24 2.048 24H36.352C37.4835 24 38.4 23.0879 38.4 21.9618V17.5185L38.3949 17.5236V18.6752Z" fill="#2A2A2A"/>
<path d="M25.7482 14.8373C25.7482 14.3278 25.5383 14.0475 25.1953 13.8437C24.8369 13.6602 24.4426 13.6348 23.8948 13.6348H21.4014V18.1137H22.4817V16.4781H23.6337C24.0279 16.4781 24.2686 16.5188 24.4273 16.6768C24.627 16.8857 24.6014 17.2832 24.6014 17.5532V18.1137H25.6868V17.2271C25.6817 16.8348 25.6612 16.6309 25.5076 16.4118C25.4154 16.2794 25.2209 16.1214 24.9802 16.0348C25.267 15.9227 25.7482 15.5558 25.7482 14.8373ZM24.371 15.4692C24.2276 15.5558 24.0484 15.5609 23.8385 15.5609H22.5278V14.5571H23.859C24.0535 14.5571 24.243 14.5622 24.3761 14.6386C24.5143 14.7099 24.6014 14.8475 24.6014 15.0411C24.6014 15.2348 24.5092 15.3825 24.371 15.4692Z" fill="#2A2A2A"/>
</g>
<defs>
<clipPath id="clip0_7789_32436">
<rect width="38.4" height="24" fill="white"/>
</clipPath>
</defs>
</svg>
