<svg width="39" height="24" viewBox="0 0 39 24" fill="none" xmlns="http://www.w3.org/2000/svg">
<g clip-path="url(#clip0_7789_32460)">
<path d="M6.15709 9.10058C5.82588 8.81523 5.42843 8.70312 4.78129 8.70312H4.51123V8.70822V11.949H4.78129C5.43352 11.949 5.84117 11.8318 6.15709 11.5617C6.50359 11.2662 6.7125 10.7974 6.7125 10.3235C6.7125 9.85472 6.50359 9.39612 6.15709 9.10058Z" fill="#2A2A2A" stroke="#2A2A2A" stroke-width="0.0509554" stroke-miterlimit="10"/>
<path d="M33.2244 8.64697H32.9136V8.65207V10.1349H33.2091C33.8512 10.1349 34.1926 9.8699 34.1926 9.37564C34.1926 8.89665 33.8512 8.64697 33.2244 8.64697Z" fill="#2A2A2A" stroke="#2A2A2A" stroke-width="0.0509554" stroke-miterlimit="10"/>
<path d="M35.7212 0H2.89574C1.40784 0 0.200195 1.18217 0.200195 2.63439V21.3656C0.200195 22.8229 1.40784 24 2.89574 24H11.0384C27.5836 20.9682 37.1429 14.6904 38.4168 13.814V21.3656V12.8662V2.63439C38.4168 1.17707 37.2091 0 35.7212 0ZM6.81421 12.214C6.31994 12.6064 5.75434 12.7796 4.97472 12.7796H3.50211V7.87771H4.97981C6.61039 7.87771 7.75179 8.88662 7.75179 10.3338C7.75179 11.0573 7.40529 11.7554 6.81421 12.214ZM9.2193 12.7796H8.21039V7.87771H8.21548H9.2193V12.7796ZM11.39 12.8917C10.6257 12.8917 10.0652 12.6064 9.60147 11.9592L10.2537 11.3631C10.483 11.7911 10.8703 12.0153 11.3543 12.0153C11.8027 12.0153 12.134 11.7197 12.134 11.3223C12.134 11.1185 12.032 10.9401 11.8333 10.8127C11.7314 10.7516 11.5327 10.665 11.1352 10.5325C10.1926 10.2115 9.86644 9.86497 9.86644 9.18726C9.86134 8.38726 10.5594 7.78599 11.4715 7.78599C12.0371 7.78599 12.5569 7.96943 12.99 8.33121L12.4652 8.98853C12.2053 8.70828 11.9556 8.59108 11.655 8.59108C11.2219 8.59108 10.9059 8.82548 10.9059 9.13631C10.9059 9.40127 11.0843 9.53885 11.6855 9.75287C12.832 10.1503 13.1683 10.5019 13.1683 11.2815C13.1683 12.2293 12.4346 12.8917 11.39 12.8917ZM17.469 9.18217C17.0512 8.7949 16.6894 8.63185 16.2053 8.63185C15.2626 8.63185 14.5187 9.3758 14.5187 10.3185C14.5187 11.3121 15.2371 12.0102 16.2512 12.0102C16.7097 12.0102 17.0613 11.8573 17.4639 11.4752V12.6013C17.0053 12.8051 16.6333 12.8866 16.2002 12.8866C14.6664 12.8866 13.4792 11.7707 13.4792 10.3287C13.4843 8.89682 14.7021 7.75541 16.2308 7.75541C16.6639 7.75541 17.0257 7.84204 17.469 8.05605V9.18217ZM20.5416 12.7796C19.0231 12.7796 17.7951 11.6484 17.7951 10.2522C17.7951 8.85096 19.0231 7.72484 20.5416 7.72484C22.0601 7.72484 23.2881 8.85605 23.2881 10.2522C23.2881 11.6484 22.0601 12.7796 20.5416 12.7796ZM25.7085 12.9019H25.1683L22.9722 7.87261H24.0728L25.4486 11.1643L26.8448 7.87261H27.9352L25.7085 12.9019ZM31.2422 8.70828H29.3926V9.79873H31.1709V10.6293H29.3926V11.9541H31.2422V12.7847H28.3887V7.87771H31.2422V8.70828ZM34.4371 12.7796L33.0461 10.8076H32.9136V12.7796H31.9097V7.87771H33.4027C34.5645 7.87771 35.2269 8.40764 35.2269 9.32484C35.2269 10.0739 34.8091 10.5682 34.0499 10.7159L35.6754 12.7796H34.4371Z" fill="#2A2A2A"/>
<path d="M38.4168 21.3656V13.814C37.1429 14.6904 27.5836 20.9682 11.0384 24H2.89574C1.40784 24 0.200195 22.8229 0.200195 21.3656V2.63439C0.200195 1.18217 1.40784 0 2.89574 0H35.7212C37.2091 0 38.4168 1.17707 38.4168 2.63439V12.8662V21.3656ZM38.4168 21.3656C38.4168 22.8178 37.2091 24 35.7212 24M6.81421 12.214C6.31994 12.6064 5.75434 12.7796 4.97472 12.7796H3.50211V7.87771H4.97981C6.61039 7.87771 7.75179 8.88662 7.75179 10.3338C7.75179 11.0573 7.40529 11.7554 6.81421 12.214ZM9.2193 12.7796H8.21039V7.87771H8.21548H9.2193V12.7796ZM11.39 12.8917C10.6257 12.8917 10.0652 12.6064 9.60147 11.9592L10.2537 11.3631C10.483 11.7911 10.8703 12.0153 11.3543 12.0153C11.8027 12.0153 12.134 11.7197 12.134 11.3223C12.134 11.1185 12.032 10.9401 11.8333 10.8127C11.7314 10.7516 11.5327 10.665 11.1352 10.5325C10.1926 10.2115 9.86644 9.86497 9.86644 9.18726C9.86134 8.38726 10.5594 7.78599 11.4715 7.78599C12.0371 7.78599 12.5569 7.96943 12.99 8.33121L12.4652 8.98853C12.2053 8.70828 11.9556 8.59108 11.655 8.59108C11.2219 8.59108 10.9059 8.82548 10.9059 9.13631C10.9059 9.40127 11.0843 9.53885 11.6855 9.75287C12.832 10.1503 13.1683 10.5019 13.1683 11.2815C13.1683 12.2293 12.4346 12.8917 11.39 12.8917ZM17.469 9.18217C17.0512 8.7949 16.6894 8.63185 16.2053 8.63185C15.2626 8.63185 14.5187 9.3758 14.5187 10.3185C14.5187 11.3121 15.2371 12.0102 16.2512 12.0102C16.7097 12.0102 17.0613 11.8573 17.4639 11.4752V12.6013C17.0053 12.8051 16.6333 12.8866 16.2002 12.8866C14.6664 12.8866 13.4792 11.7707 13.4792 10.3287C13.4843 8.89682 14.7021 7.75541 16.2308 7.75541C16.6639 7.75541 17.0257 7.84204 17.469 8.05605V9.18217ZM20.5416 12.7796C19.0231 12.7796 17.7951 11.6484 17.7951 10.2522C17.7951 8.85096 19.0231 7.72484 20.5416 7.72484C22.0601 7.72484 23.2881 8.85605 23.2881 10.2522C23.2881 11.6484 22.0601 12.7796 20.5416 12.7796ZM25.7085 12.9019H25.1683L22.9722 7.87261H24.0728L25.4486 11.1643L26.8448 7.87261H27.9352L25.7085 12.9019ZM31.2422 8.70828H29.3926V9.79873H31.1709V10.6293H29.3926V11.9541H31.2422V12.7847H28.3887V7.87771H31.2422V8.70828ZM34.4371 12.7796L33.0461 10.8076H32.9136V12.7796H31.9097V7.87771H33.4027C34.5645 7.87771 35.2269 8.40764 35.2269 9.32484C35.2269 10.0739 34.8091 10.5682 34.0499 10.7159L35.6754 12.7796H34.4371Z" stroke="#2A2A2A" stroke-width="0.0509554" stroke-miterlimit="10"/>
<path d="M3.71631 23.9492H36.3227" stroke="#2A2A2A" stroke-width="0.101911" stroke-miterlimit="10"/>
</g>
<defs>
<clipPath id="clip0_7789_32460">
<rect width="38.2166" height="24" fill="white" transform="translate(0.200195)"/>
</clipPath>
</defs>
</svg>
