<svg width="24" height="24" viewBox="0 0 24 24" fill="none" xmlns="http://www.w3.org/2000/svg">
<path d="M17.8136 8.76403H6.18761C5.90844 8.75358 5.63462 8.83656 5.41704 8.99757C5.19947 9.15858 5.05293 9.38666 5.00467 9.63943L3.35711 20.1677C3.34857 20.3122 3.37341 20.4568 3.42998 20.5918C3.48656 20.727 3.57359 20.8495 3.68537 20.9515C3.79716 21.0536 3.93116 21.1327 4.0786 21.1838C4.22604 21.2349 4.38358 21.2568 4.54088 21.2481H19.4603C19.6176 21.2569 19.7751 21.2349 19.9225 21.1839C20.0699 21.1327 20.2039 21.0535 20.3156 20.9515C20.4273 20.8495 20.5143 20.7269 20.5708 20.5918C20.6272 20.4567 20.6519 20.3122 20.6433 20.1677L18.9957 9.63943C18.9475 9.38679 18.801 9.15882 18.5836 8.99783C18.3663 8.83683 18.0927 8.75376 17.8136 8.76403Z" stroke="#2A2A2A" stroke-width="1.68092" stroke-linecap="round" stroke-linejoin="round"/>
<path d="M14.8818 5.88158C14.7533 5.07274 14.395 4.34294 13.8686 3.81722C13.3421 3.29149 12.6803 3.00259 11.9963 3C11.3158 3.00359 10.6573 3.29082 10.1327 3.81286C9.60806 4.3349 9.24977 5.05955 9.11865 5.86367" stroke="#2A2A2A" stroke-width="1.68092" stroke-linecap="round" stroke-linejoin="round"/>
</svg>
