<svg width="23" height="23" viewBox="0 0 23 23" fill="none" xmlns="http://www.w3.org/2000/svg">
<path fill-rule="evenodd" clip-rule="evenodd" d="M14.4522 15.6351C12.7369 17.0057 10.562 17.6674 8.37409 17.4844C6.18617 17.3013 4.15139 16.2874 2.68763 14.6509C1.22387 13.0144 0.442259 10.8795 0.503327 8.68469C0.564394 6.48986 1.4635 4.40172 3.01599 2.84915C4.56848 1.29657 6.6565 0.397406 8.8512 0.336335C11.0459 0.275264 13.1807 1.05692 14.8171 2.52076C16.4535 3.9846 17.4673 6.01951 17.6504 8.20755C17.8334 10.3956 17.1717 12.5707 15.8012 14.286L22.3628 20.8467C22.4565 20.9341 22.5318 21.0395 22.5839 21.1566C22.6361 21.2737 22.6641 21.4 22.6664 21.5282C22.6687 21.6564 22.6451 21.7837 22.5971 21.9025C22.5491 22.0214 22.4776 22.1294 22.387 22.22C22.2964 22.3106 22.1884 22.3821 22.0696 22.4301C21.9507 22.4781 21.8234 22.5017 21.6953 22.4994C21.5671 22.4972 21.4407 22.4691 21.3236 22.4169C21.2066 22.3648 21.1012 22.2895 21.0138 22.1958L14.4522 15.6351ZM4.3655 13.6471C3.43146 12.7129 2.7953 11.5228 2.53741 10.2271C2.27953 8.93148 2.4115 7.58844 2.91665 6.36777C3.4218 5.14709 4.27745 4.10356 5.37546 3.36907C6.47348 2.63458 7.76457 2.24208 9.08558 2.24119C10.4066 2.24031 11.6982 2.63106 12.7972 3.36408C13.8962 4.09709 14.7533 5.13946 15.2601 6.35946C15.7669 7.57946 15.9006 8.92232 15.6445 10.2183C15.3884 11.5143 14.7538 12.7053 13.821 13.6408L13.8146 13.6471L13.8083 13.6522C12.5549 14.9028 10.8564 15.6047 9.08584 15.6037C7.31531 15.6028 5.61756 14.8991 4.3655 13.6471Z" fill="#2A2A2A"/>
</svg>
