<svg width="24" height="24" viewBox="0 0 24 24" fill="none" xmlns="http://www.w3.org/2000/svg">
<path d="M18.9999 20.2499C18.9999 16.94 15.3097 14.2494 12 14.2494C8.69019 14.2494 5 16.94 5 20.2499M12 11.2501C13.0608 11.2501 14.0782 10.8286 14.8283 10.0785C15.5784 9.32833 15.9998 8.31091 15.9998 7.25003C15.9998 6.18916 15.5784 5.17174 14.8283 4.42158C14.0782 3.67143 13.0608 3.25 12 3.25C10.9391 3.25 9.92176 3.67143 9.17165 4.42158C8.42153 5.17174 8.00012 6.18916 8.00012 7.25003C8.00012 8.31091 8.42153 9.32833 9.17165 10.0785C9.92176 10.8286 10.9391 11.2501 12 11.2501Z" stroke="#2A2A2A" stroke-width="1.75" stroke-linecap="round" stroke-linejoin="round"/>
</svg>
