<svg width="24" height="24" viewBox="0 0 24 24" fill="none" xmlns="http://www.w3.org/2000/svg">
<rect width="24" height="24" rx="3" fill="#2A2A2A"/>
<g clip-path="url(#clip0_7789_32506)">
<path d="M8.12611 3.3112C7.19511 3.35512 6.55934 3.5037 6.00354 3.7221C5.42831 3.94627 4.94076 4.2471 4.45566 4.73395C3.97056 5.2208 3.67184 5.7087 3.44924 6.2848C3.23381 6.84182 3.08786 7.47812 3.04674 8.40965C3.00561 9.34117 2.99651 9.6406 3.00106 12.0167C3.00561 14.3929 3.01611 14.6907 3.06126 15.6242C3.10571 16.555 3.25376 17.1906 3.47216 17.7466C3.69669 18.3218 3.99716 18.8092 4.48419 19.2945C4.97121 19.7797 5.45876 20.0778 6.03626 20.3007C6.59276 20.5158 7.22924 20.6624 8.16059 20.7032C9.09194 20.744 9.39171 20.7534 11.7672 20.7489C14.1426 20.7443 14.4417 20.7338 15.375 20.6896C16.3082 20.6453 16.9405 20.4962 17.4967 20.2788C18.0719 20.0538 18.5596 19.7538 19.0445 19.2666C19.5295 18.7794 19.828 18.2912 20.0504 17.7147C20.266 17.1582 20.4125 16.5218 20.4529 15.5911C20.4937 14.6571 20.5033 14.3589 20.4988 11.9831C20.4942 9.60735 20.4836 9.3095 20.4393 8.3764C20.395 7.4433 20.2468 6.80962 20.0286 6.2533C19.8037 5.67807 19.5036 5.19105 19.0167 4.70542C18.5299 4.2198 18.0413 3.92142 17.465 3.69952C16.9081 3.4841 16.272 3.33727 15.3407 3.29702C14.4093 3.25677 14.1095 3.24645 11.7332 3.251C9.35689 3.25555 9.05939 3.2657 8.12611 3.3112ZM8.22831 19.1291C7.37519 19.092 6.91196 18.9502 6.60326 18.8316C6.19446 18.6741 5.90326 18.4837 5.59561 18.179C5.28796 17.8743 5.09896 17.5821 4.93936 17.1742C4.81949 16.8655 4.67511 16.4028 4.63521 15.5496C4.59181 14.6276 4.58271 14.3507 4.57764 12.0146C4.57256 9.67857 4.58149 9.40207 4.62191 8.47965C4.65831 7.62722 4.80094 7.16347 4.91941 6.85495C5.07691 6.44562 5.26661 6.15495 5.57199 5.84747C5.87736 5.54 6.16874 5.35065 6.57701 5.19105C6.88536 5.07065 7.34806 4.9275 8.20084 4.8869C9.12361 4.84315 9.40011 4.8344 11.7358 4.82932C14.0716 4.82425 14.3488 4.833 15.2719 4.8736C16.1243 4.9107 16.5882 5.05192 16.8964 5.1711C17.3054 5.3286 17.5964 5.51777 17.9039 5.82367C18.2114 6.12957 18.4009 6.4199 18.5605 6.82905C18.6811 7.13652 18.8242 7.59905 18.8645 8.45235C18.9084 9.37512 18.9184 9.6518 18.9226 11.9873C18.9268 14.3229 18.9185 14.6003 18.8781 15.5223C18.8408 16.3755 18.6994 16.8389 18.5806 17.1479C18.4231 17.5565 18.2332 17.8479 17.9277 18.1552C17.6221 18.4625 17.3311 18.6519 16.9227 18.8115C16.6147 18.9317 16.1514 19.0752 15.2994 19.1158C14.3766 19.1592 14.1001 19.1683 11.7635 19.1734C9.42689 19.1784 9.15126 19.169 8.22849 19.1291M15.3615 7.32342C15.3618 7.53111 15.4238 7.73402 15.5394 7.90651C15.6551 8.079 15.8194 8.2133 16.0114 8.29244C16.2034 8.37159 16.4146 8.39201 16.6182 8.35112C16.8218 8.31024 17.0087 8.20989 17.1553 8.06277C17.3019 7.91564 17.4016 7.72835 17.4417 7.52458C17.4818 7.32081 17.4606 7.10972 17.3808 6.91799C17.3009 6.72627 17.166 6.56253 16.9931 6.44749C16.8202 6.33244 16.6171 6.27126 16.4094 6.27167C16.131 6.27223 15.8642 6.38334 15.6677 6.58057C15.4712 6.7778 15.361 7.045 15.3615 7.32342ZM7.25724 12.0087C7.26214 14.4902 9.27744 16.4973 11.7584 16.4925C14.2394 16.4878 16.2479 14.4727 16.2431 11.9912C16.2384 9.5097 14.2226 7.5021 11.7413 7.507C9.25994 7.5119 7.25251 9.52755 7.25724 12.0087ZM8.83329 12.0055C8.83215 11.4287 9.0021 10.8644 9.32164 10.3841C9.64118 9.90385 10.096 9.5291 10.6285 9.30729C11.161 9.08547 11.7474 9.02655 12.3134 9.13797C12.8794 9.2494 13.3996 9.52616 13.8084 9.93326C14.2171 10.3404 14.4959 10.8595 14.6096 11.4251C14.7232 11.9907 14.6666 12.5772 14.4469 13.1106C14.2272 13.644 13.8543 14.1003 13.3753 14.4217C12.8962 14.7432 12.3327 14.9154 11.7558 14.9165C11.3727 14.9173 10.9933 14.8426 10.6391 14.6968C10.2849 14.5509 9.96295 14.3367 9.69156 14.0664C9.42017 13.7961 9.20469 13.4749 9.05743 13.1213C8.91016 12.7677 8.834 12.3886 8.83329 12.0055Z" fill="white"/>
</g>
<defs>
<clipPath id="clip0_7789_32506">
<rect width="17.5" height="17.5" fill="white" transform="translate(3 3.25)"/>
</clipPath>
</defs>
</svg>
