<svg width="24" height="24" viewBox="0 0 24 24" fill="none" xmlns="http://www.w3.org/2000/svg">
<rect width="24" height="24" rx="3" fill="#2A2A2A"/>
<g clip-path="url(#clip0_7789_32509)">
<path d="M18.317 18.166H15.6534V14.0358C15.6534 13.0509 15.6357 11.783 14.2681 11.783C12.8808 11.783 12.6685 12.8561 12.6685 13.9641V18.1657H10.0049V9.67233H12.562V10.833H12.5978C12.8537 10.3998 13.2235 10.0434 13.6677 9.80182C14.112 9.56022 14.6142 9.44246 15.1207 9.46107C17.8203 9.46107 18.3181 11.2193 18.3181 13.5067L18.317 18.166ZM6.99953 8.51135C6.69382 8.51141 6.39495 8.4217 6.14073 8.25357C5.88651 8.08544 5.68836 7.84645 5.57132 7.56681C5.45428 7.28717 5.4236 6.97945 5.48319 6.68255C5.54278 6.38565 5.68995 6.11292 5.90608 5.89884C6.12221 5.68476 6.39761 5.53895 6.69744 5.47984C6.99726 5.42073 7.30805 5.45098 7.59052 5.56677C7.87298 5.68256 8.11442 5.87868 8.28431 6.13034C8.4542 6.382 8.54491 6.67789 8.54497 6.98059C8.545 7.18158 8.50505 7.3806 8.42741 7.5663C8.34976 7.752 8.23595 7.92074 8.09244 8.06289C7.94893 8.20503 7.77854 8.3178 7.59102 8.39474C7.4035 8.47169 7.20252 8.51132 6.99953 8.51135ZM8.33132 18.166H5.66497V9.67233H8.33132V18.166ZM19.6449 3.00121H4.32652C3.97884 2.99733 3.6438 3.13028 3.39507 3.37084C3.14633 3.61141 3.00424 3.93992 3 4.28417V19.5146C3.0041 19.859 3.1461 20.1878 3.39483 20.4286C3.64356 20.6694 3.97867 20.8026 4.32652 20.7989H19.6449C19.9934 20.8033 20.3295 20.6704 20.5792 20.4296C20.8289 20.1888 20.9719 19.8597 20.9767 19.5146V4.28307C20.9717 3.93814 20.8287 3.60926 20.5789 3.3687C20.3292 3.12813 19.9933 2.99556 19.6449 3.00011" fill="white"/>
</g>
<defs>
<clipPath id="clip0_7789_32509">
<rect width="18" height="18" fill="white" transform="translate(3 3)"/>
</clipPath>
</defs>
</svg>
