<svg width="40" height="24" viewBox="0 0 40 24" fill="none" xmlns="http://www.w3.org/2000/svg">
<g clip-path="url(#clip0_7789_32453)">
<path d="M20.0966 19.7969C19.7792 19.7969 19.5846 20.0109 19.5283 20.3013H20.6291C20.6035 19.9854 20.3936 19.7969 20.0966 19.7969Z" fill="#2A2A2A"/>
<path d="M13.6046 19.8008C13.2052 19.8008 12.9697 20.0912 12.9697 20.4734C12.9697 20.8505 13.2052 21.1715 13.6046 21.146C13.963 21.146 14.219 20.8759 14.219 20.4734C14.219 20.0963 13.9886 19.8008 13.6046 19.8008Z" fill="#2A2A2A"/>
<path d="M26.0724 19.8008C25.673 19.8008 25.4375 20.0912 25.4375 20.4734C25.4375 20.8505 25.673 21.1715 26.0724 21.146C26.4308 21.146 26.6868 20.8759 26.6868 20.4734C26.6868 20.0963 26.4564 19.8008 26.0724 19.8008Z" fill="#2A2A2A"/>
<path d="M37.1518 0H2.8478C1.71628 0 0.799805 0.912102 0.799805 2.03822V21.9618C0.799805 23.0879 1.71628 24 2.8478 24H37.1518C38.2833 24 39.1998 23.0879 39.1998 21.9618V2.03822C39.1998 0.912102 38.2833 0 37.1518 0ZM9.66253 4.9121C12.3659 2.00255 16.8612 1.64586 19.9896 4.09682C18.1566 5.53885 17.0865 7.74013 17.0865 10.0688C17.0865 12.3975 18.1566 14.5987 19.9896 16.0357C16.8612 18.4866 12.3659 18.1299 9.66253 15.2204C6.95917 12.3108 6.95917 7.82166 9.66253 4.9121ZM12.1201 21.4879H11.6747V20.3261C11.6747 19.9847 11.5057 19.7962 11.2088 19.7962C10.9118 19.7962 10.7019 19.9694 10.7019 20.3261V21.4879H10.2974V20.3261C10.2974 19.9847 10.1284 19.7962 9.83148 19.7962C9.53452 19.7962 9.3246 19.9694 9.3246 20.3261V21.4879H8.92013V19.4599H9.3246V19.7146C9.46797 19.521 9.69837 19.4089 9.939 19.4191C10.2564 19.4191 10.4664 19.5414 10.6148 19.7758C10.8094 19.5057 11.0808 19.4191 11.3368 19.4191C11.8232 19.4191 12.1201 19.735 12.1201 20.2191V21.4879ZM14.6033 20.4739V21.4879H14.1988V21.2331C14.0504 21.4217 13.8404 21.5287 13.5435 21.5287C12.97 21.5287 12.5451 21.0854 12.5451 20.4739C12.5451 19.8624 12.97 19.4191 13.5435 19.4191C13.8404 19.4191 14.0504 19.5261 14.1988 19.7146V19.4599H14.6033V20.4739ZM15.9243 21.5134C15.7092 21.5134 15.3508 21.4675 15.0539 21.2586L15.2638 20.9427C15.4584 21.0803 15.699 21.1567 15.9396 21.1516C16.2571 21.1516 16.426 21.0446 16.426 20.8968C16.426 20.7898 16.2776 20.7032 16.042 20.6624L15.8321 20.642C15.3918 20.5758 15.1563 20.3873 15.1563 20.051C15.1563 19.6535 15.4737 19.4191 15.9806 19.4191C16.3032 19.4191 16.6001 19.4803 16.81 19.628L16.6052 19.9541C16.4772 19.893 16.2264 19.786 15.9704 19.786C15.7348 19.786 15.5659 19.893 15.5659 20.0408C15.5659 20.1631 15.7348 20.2293 15.9243 20.2497L16.1342 20.2701C16.5796 20.3312 16.8356 20.5045 16.8356 20.8611C16.8356 21.2382 16.5182 21.5134 15.9243 21.5134ZM18.2692 21.5287C17.7624 21.5287 17.5934 21.2535 17.5934 20.7898V19.8369H17.1684V19.4803H17.5934V18.8688H17.9979V19.4803H18.7403L18.7352 19.8268H17.9928V20.7949C17.9928 21.0038 18.1003 21.1312 18.3102 21.1312C18.4484 21.1312 18.5816 21.0955 18.6942 21.0242L18.8222 21.3809C18.6532 21.4726 18.4638 21.5236 18.2692 21.5287ZM21.0699 20.6369H19.5646C19.6056 20.9987 19.9025 21.1669 20.179 21.1669C20.394 21.1618 20.604 21.0904 20.7729 20.958L20.9828 21.2535C20.7473 21.4369 20.4555 21.5338 20.1585 21.5287C19.5441 21.5287 19.1192 21.1057 19.1192 20.4739C19.1192 19.842 19.5236 19.4191 20.1176 19.4191C20.6859 19.4191 21.0699 19.842 21.0699 20.4688V20.6369ZM22.6827 19.842C22.5905 19.8217 22.4984 19.8064 22.4062 19.8013C22.1297 19.8013 21.9608 20.0153 21.9608 20.3516V21.4879H21.5563V19.4599H21.9608V19.7146C22.0785 19.5261 22.2884 19.414 22.5137 19.4191C22.611 19.4242 22.7134 19.4344 22.8107 19.4599L22.6827 19.842ZM23.9985 21.1669C24.1931 21.1669 24.3825 21.1006 24.531 20.9783L24.7409 21.2943C24.5259 21.4675 24.316 21.5287 24.019 21.5287C23.3636 21.5287 22.9592 21.0854 22.9592 20.4739C22.9592 19.8624 23.379 19.4191 24.019 19.4599C24.316 19.4599 24.531 19.5261 24.7409 19.6943L24.531 20.0102C24.3774 19.893 24.1931 19.8217 23.9985 19.8217C23.635 19.8217 23.3636 20.0968 23.3636 20.4943C23.3636 20.8917 23.6401 21.1669 23.9985 21.1669ZM27.0705 20.4739V21.4879H26.666V21.2331C26.5176 21.4217 26.3076 21.5287 26.0107 21.5287C25.4372 21.5287 25.0123 21.0854 25.0123 20.4739C25.0123 19.8624 25.4372 19.4191 26.0107 19.4191C26.3076 19.4191 26.5176 19.5261 26.666 19.7146V19.4599H27.0705V20.4739ZM28.8113 19.842C28.7192 19.8217 28.627 19.8064 28.5348 19.8013C28.2584 19.8013 28.0894 20.0153 28.0894 20.3516V21.4879H27.6849V19.4599H28.0894V19.7146C28.2072 19.5261 28.4171 19.414 28.6424 19.4191C28.7396 19.4242 28.842 19.4344 28.9393 19.4599L28.8113 19.842ZM31.1665 20.4739V21.4879H30.762V21.2331C30.6136 21.4217 30.4036 21.5287 30.1067 21.5287C29.5332 21.5287 29.1083 21.0854 29.1083 20.4739C29.1083 19.8624 29.5332 19.4191 30.1067 19.4191C30.4036 19.4191 30.6136 19.5261 30.762 19.7146V18.6599H31.1665V20.4739ZM28.0638 16.9019C25.4372 18.1758 22.314 17.8395 20.0152 16.0459C21.8481 14.6038 22.9182 12.4025 22.9182 10.0739C22.9182 7.74522 21.8481 5.54395 20.0152 4.10191C22.3089 2.29809 25.4372 1.96688 28.0638 3.23567C30.6904 4.50446 32.3544 7.16433 32.3544 10.0688C32.3544 12.9732 30.6904 15.628 28.0638 16.9019Z" fill="#2A2A2A"/>
<path d="M30.1681 19.8008C29.7687 19.8008 29.5332 20.0912 29.5332 20.4734C29.5332 20.8505 29.7636 21.1715 30.1681 21.146C30.5265 21.146 30.7825 20.8759 30.7825 20.4734C30.7825 20.0963 30.5521 19.8008 30.1681 19.8008Z" fill="#2A2A2A"/>
</g>
<defs>
<clipPath id="clip0_7789_32453">
<rect width="38.4" height="24" fill="white" transform="translate(0.799805)"/>
</clipPath>
</defs>
</svg>
