<svg width="38" height="24" viewBox="0 0 38 24" fill="none" xmlns="http://www.w3.org/2000/svg">
<g clip-path="url(#clip0_7789_32466)">
<path d="M30.2238 11.4329C30.0341 11.2546 29.7894 11.168 29.4999 11.168C29.1155 11.168 28.791 11.3055 28.5315 11.5756C28.2719 11.8457 28.1421 12.1769 28.1421 12.5692C28.1421 12.8699 28.2319 13.1043 28.4216 13.2724C28.6113 13.4406 28.8559 13.5272 29.1555 13.5272C29.5299 13.5272 29.8494 13.3947 30.1139 13.1298C30.3785 12.8648 30.5133 12.5387 30.5133 12.1565C30.5133 11.8508 30.4184 11.6062 30.2238 11.4329Z" fill="#2A2A2A"/>
<path d="M24.8478 9.30352C24.723 9.19142 24.5932 9.12517 24.4585 9.10479C24.3237 9.08441 24.144 9.07422 23.9143 9.07422H23.6348C23.52 9.07422 23.4501 9.13027 23.4301 9.24747L23.1655 10.9494L23.6647 10.9341C24.119 10.9341 24.4634 10.8526 24.6931 10.6946C24.9227 10.5315 25.0375 10.2309 25.0375 9.78759C25.0375 9.57868 24.9726 9.41562 24.8478 9.30352Z" fill="#2A2A2A"/>
<path d="M12.5021 11.4407C12.3124 11.2624 12.0678 11.1758 11.7782 11.1758C11.3939 11.1758 11.0694 11.3134 10.8098 11.5834C10.5502 11.8535 10.4204 12.1847 10.4204 12.5771C10.4204 12.8777 10.5153 13.1121 10.695 13.2802C10.8747 13.4484 11.1193 13.535 11.4188 13.535C11.8032 13.535 12.1277 13.4025 12.3923 13.1427C12.6568 12.8828 12.7866 12.5516 12.7916 12.1643C12.7916 11.8586 12.6968 11.614 12.5021 11.4407Z" fill="#2A2A2A"/>
<path d="M7.09067 9.25375C6.90596 9.13146 6.60145 9.07031 6.18712 9.07031H5.89259C5.77777 9.07031 5.70788 9.12636 5.68792 9.24356L5.42334 10.9455L5.93752 10.9302C6.34686 10.9302 6.65636 10.8741 6.87601 10.7569C7.09067 10.6397 7.23044 10.3952 7.28036 10.0232C7.34027 9.63082 7.28036 9.37605 7.09067 9.25375Z" fill="#2A2A2A"/>
<path d="M35.2157 0H3.05727C1.59961 0 0.416504 1.18217 0.416504 2.63439V21.3656C0.416504 22.8178 1.59961 24 3.05727 24H35.2157C36.6734 24 37.8565 22.8178 37.8565 21.3656V2.63439C37.8565 1.18217 36.6734 0 35.2157 0ZM6.29708 12.3465C6.26214 12.3465 6.19225 12.3414 6.07743 12.3312C5.96262 12.321 5.86777 12.3159 5.7829 12.3159C5.69804 12.3159 5.61318 12.3261 5.51833 12.3414C5.42348 12.3567 5.34361 12.3924 5.2837 12.4433C5.21881 12.4994 5.18386 12.5656 5.17388 12.6522L4.89433 14.4051C4.87436 14.6038 4.75954 14.7057 4.54988 14.7057H3.36178C3.30188 14.7057 3.24697 14.6752 3.20703 14.6242C3.1671 14.5732 3.15212 14.5172 3.1621 14.451L4.17548 7.95414C4.20044 7.75541 4.30527 7.6535 4.50495 7.6535H7.00095C7.64492 7.6535 8.16908 7.79618 8.56844 8.07643C8.9678 8.35669 9.16748 8.81019 9.16748 9.43185C9.16748 10.3439 8.91289 11.0573 8.4037 11.572C7.89452 12.0917 7.19065 12.3465 6.29708 12.3465ZM14.6287 10.2471L13.9898 14.4051C13.9598 14.6038 13.845 14.7057 13.6453 14.7057H12.562C12.4273 14.7057 12.3574 14.6191 12.3574 14.451C12.3574 14.3541 12.3823 14.242 12.4223 14.1146C12.2376 14.3287 11.988 14.4968 11.6735 14.6242C11.364 14.7516 11.0594 14.8178 10.7699 14.8178C10.1659 14.8178 9.68665 14.6344 9.32722 14.2624C8.9678 13.8904 8.78809 13.3911 8.78809 12.7643C8.78809 11.9898 9.05266 11.3172 9.57682 10.7414C10.101 10.1656 10.74 9.88025 11.4888 9.88025C12.1976 9.88025 12.6918 10.0943 12.9714 10.5172C13.0013 10.1656 13.0912 9.99236 13.236 9.99236H14.4241C14.489 9.99236 14.5389 10.0178 14.5838 10.0739C14.6237 10.1248 14.6387 10.1809 14.6287 10.2471ZM16.6754 16.3465H15.4724C15.3376 16.3465 15.2677 16.2752 15.2677 16.1376C15.2677 16.051 15.692 15.414 16.5457 14.2268C16.5357 14.1809 16.4159 13.814 16.1812 13.1108C15.9466 12.4127 15.732 11.7605 15.5273 11.1541C15.3226 10.5529 15.2228 10.2369 15.2228 10.2166C15.2228 10.1605 15.2477 10.1096 15.2877 10.0637C15.3276 10.0178 15.3775 9.99236 15.4274 9.99236H16.5956C16.7753 9.99236 16.8901 10.079 16.94 10.2471L17.6239 12.6369L19.2813 10.1503C19.3512 10.0433 19.446 9.99236 19.5608 9.99236H20.7639C20.8138 9.99236 20.8637 10.0178 20.9037 10.0637C20.9436 10.1146 20.9636 10.1656 20.9636 10.2166C20.9636 10.2675 20.9536 10.3083 20.9336 10.3287L16.955 16.1885C16.8851 16.2955 16.7903 16.3465 16.6754 16.3465ZM24.0137 12.3414C23.9837 12.3414 23.9089 12.3363 23.794 12.3261C23.6792 12.3159 23.5844 12.3108 23.4995 12.3108C23.4146 12.3108 23.3298 12.321 23.2349 12.3363C23.1401 12.3516 23.0652 12.3873 23.0003 12.4382C22.9354 12.4943 22.9005 12.5605 22.8905 12.6471L22.6109 14.4968C22.571 14.6344 22.4861 14.7057 22.3613 14.7057H21.0834C21.0235 14.7057 20.9686 14.6752 20.9286 14.6242C20.8887 14.5732 20.8737 14.5172 20.8837 14.451L21.8971 7.95414C21.917 7.75541 22.0319 7.6535 22.2415 7.6535H24.7225C25.3665 7.6535 25.8907 7.79618 26.29 8.07643C26.6944 8.35669 26.8941 8.81019 26.8841 9.42675C26.8841 10.3389 26.6295 11.0522 26.1203 11.5669C25.6111 12.0866 24.9073 12.3414 24.0137 12.3414ZM32.3553 10.2471L31.7163 14.4051C31.6814 14.6038 31.5716 14.7057 31.3719 14.7057H30.2936C30.1588 14.7057 30.089 14.6191 30.089 14.451C30.089 14.4051 30.0989 14.3439 30.1189 14.2573C30.1389 14.1707 30.1489 14.1248 30.1489 14.1146C29.9691 14.3287 29.7295 14.4968 29.415 14.6242C29.1055 14.7516 28.796 14.8178 28.4965 14.8178C27.8925 14.8178 27.4132 14.6344 27.0538 14.2624C26.6944 13.8904 26.5147 13.3911 26.5147 12.7643C26.5147 11.9898 26.7793 11.3172 27.3034 10.7414C27.8276 10.1656 28.4666 9.88025 29.2154 9.88025C29.9342 9.88025 30.4284 10.0943 30.698 10.5172C30.7279 10.1656 30.8178 9.99236 30.9626 9.99236H32.1506C32.2155 9.99236 32.2655 10.0178 32.3104 10.0739C32.3503 10.1248 32.3653 10.1809 32.3553 10.2471ZM35.1159 7.89299L34.1025 14.4051C34.0776 14.6038 33.9727 14.7057 33.773 14.7057H32.7447C32.6848 14.7057 32.6299 14.6803 32.5899 14.6344C32.545 14.5834 32.525 14.5325 32.525 14.4815L32.54 14.451L33.5534 7.82675C33.5734 7.70955 33.6433 7.6535 33.7581 7.6535H34.9112C35.046 7.6535 35.1159 7.72484 35.1159 7.87771V7.89299Z" fill="#2A2A2A"/>
</g>
<defs>
<clipPath id="clip0_7789_32466">
<rect width="37.44" height="24" fill="white" transform="translate(0.416504)"/>
</clipPath>
</defs>
</svg>
