<svg width="24" height="24" viewBox="0 0 24 24" fill="none" xmlns="http://www.w3.org/2000/svg">
<rect width="24" height="24" rx="3" fill="#2A2A2A"/>
<g clip-path="url(#clip0_7789_32521)">
<path d="M12.25 19.5C17.0825 19.5 21 15.5825 21 10.75C21 5.91751 17.0825 2 12.25 2C7.41751 2 3.5 5.91751 3.5 10.75C3.5 15.5825 7.41751 19.5 12.25 19.5Z" fill="white"/>
<path d="M12.25 2C7.4177 2 3.5 5.9177 3.5 10.75C3.5 14.4588 5.80453 17.6276 9.05967 18.9023C8.98045 18.2109 8.91564 17.1451 9.08848 16.3889C9.24691 15.7047 10.1111 12.0391 10.1111 12.0391C10.1111 12.0391 9.85185 11.5134 9.85185 10.7428C9.85185 9.52572 10.5576 8.61831 11.4362 8.61831C12.1852 8.61831 12.5453 9.18004 12.5453 9.84979C12.5453 10.5988 12.07 11.7222 11.8179 12.7665C11.6091 13.6379 12.2572 14.3508 13.1142 14.3508C14.6698 14.3508 15.8652 12.7088 15.8652 10.3467C15.8652 8.25103 14.3601 6.78909 12.2068 6.78909C9.71502 6.78909 8.25309 8.65432 8.25309 10.5844C8.25309 11.3333 8.54115 12.1399 8.90123 12.5792C8.97325 12.6656 8.98045 12.7449 8.95885 12.8313C8.89403 13.1049 8.7428 13.7027 8.71399 13.8251C8.67798 13.9835 8.58436 14.0195 8.41872 13.9403C7.32407 13.429 6.63992 11.8374 6.63992 10.5484C6.63992 7.79012 8.64197 5.25514 12.4228 5.25514C15.4547 5.25514 17.8169 7.41564 17.8169 10.3107C17.8169 13.3282 15.9156 15.7551 13.2798 15.7551C12.394 15.7551 11.5586 15.2942 11.2778 14.7469C11.2778 14.7469 10.8385 16.4177 10.7305 16.8282C10.536 17.5916 10.0031 18.5422 9.643 19.1255C10.464 19.3776 11.3282 19.5144 12.2356 19.5144C17.0679 19.5144 20.9856 15.5967 20.9856 10.7644C21 5.9177 17.0823 2 12.25 2Z" fill="#2A2A2A"/>
</g>
<defs>
<clipPath id="clip0_7789_32521">
<rect width="17.5" height="17.5" fill="white" transform="translate(3.25 3.25)"/>
</clipPath>
</defs>
</svg>
