<svg width="39" height="24" viewBox="0 0 39 24" fill="none" xmlns="http://www.w3.org/2000/svg">
<g clip-path="url(#clip0_7789_32449)">
<path d="M32.3794 9.75781C32.2411 10.1349 32.0005 10.7362 32.0159 10.7107C32.0159 10.7107 31.1506 12.9221 30.9253 13.4979H33.1986C33.0859 12.9986 32.5637 10.619 32.5637 10.619L32.3794 9.75781Z" fill="#2A2A2A"/>
<path d="M36.7519 0H2.4479C1.31638 0 0.399902 0.912102 0.399902 2.03822V21.9618C0.399902 23.0879 1.31638 24 2.4479 24H36.7519C37.8834 24 38.7999 23.0879 38.7999 21.9618V2.03822C38.7999 0.912102 37.8834 0 36.7519 0ZM8.0287 17.014L5.60182 8.37197C4.75702 7.90318 3.79446 7.52611 2.71414 7.26624L2.74998 7.05732H7.15318C7.7471 7.07771 8.22838 7.26624 8.39222 7.89809L9.32406 12.3516C9.33942 12.3924 9.34966 12.4382 9.36502 12.479L9.65174 13.8599L12.3295 7.05223H15.2223L10.9215 17.0089L8.0287 17.014ZM14.6437 17.0293L16.3538 7.05732H19.0828L17.3727 17.0293H14.6437ZM22.0933 17.1465C20.8697 17.1363 19.6921 16.8968 19.0521 16.6166L19.4361 14.3847L19.7893 14.5427C20.6853 14.9146 21.2639 15.0675 22.3596 15.0675C23.1429 15.0675 23.9877 14.7618 23.9929 14.0943C23.998 13.6561 23.6396 13.3452 22.5746 12.8561C21.5353 12.3771 20.1631 11.5771 20.1785 10.1452C20.1938 8.20892 22.0985 6.8535 24.7967 6.8535C25.8565 6.8535 26.7013 7.06752 27.2441 7.27134L26.8754 9.43185L26.6297 9.31465C26.1279 9.11083 25.4777 8.9172 24.5868 8.93248C23.5167 8.93248 23.0201 9.3758 23.0201 9.78854C23.0149 10.2573 23.5986 10.5631 24.5561 11.0268C26.133 11.7401 26.8601 12.6013 26.8498 13.7376C26.8293 15.8115 24.9657 17.1465 22.0933 17.1465ZM33.9513 17.0242C33.9513 17.0242 33.7004 15.8828 33.6185 15.5312C33.2242 15.5312 30.4338 15.5261 30.1215 15.5261C30.0191 15.7962 29.5481 17.0242 29.5481 17.0242H26.6809L30.7359 7.8828C31.0226 7.23567 31.509 7.05732 32.1644 7.05732H34.2738L36.4857 17.0242H33.9513Z" fill="#2A2A2A"/>
</g>
<defs>
<clipPath id="clip0_7789_32449">
<rect width="38.4" height="24" fill="white" transform="translate(0.399902)"/>
</clipPath>
</defs>
</svg>
