<svg width="24" height="24" viewBox="0 0 24 24" fill="none" xmlns="http://www.w3.org/2000/svg">
<rect width="24" height="24" rx="3" fill="#2A2A2A"/>
<g clip-path="url(#clip0_7789_32516)">
<path d="M10.2102 14.5325V9.46754L14.7841 12.0001L10.2102 14.5325ZM20.3843 7.87384C20.183 7.13623 19.59 6.55539 18.8371 6.35826C17.4724 6 12 6 12 6C12 6 6.5276 6 5.16286 6.35826C4.40993 6.55539 3.81692 7.13623 3.61568 7.87384C3.25 9.21071 3.25 12 3.25 12C3.25 12 3.25 14.7893 3.61568 16.1262C3.81692 16.8638 4.40993 17.4446 5.16286 17.6418C6.5276 18 12 18 12 18C12 18 17.4724 18 18.8371 17.6418C19.59 17.4446 20.183 16.8638 20.3843 16.1262C20.75 14.7893 20.75 12 20.75 12C20.75 12 20.75 9.21071 20.3843 7.87384Z" fill="white"/>
</g>
<defs>
<clipPath id="clip0_7789_32516">
<rect width="17.5" height="12" fill="white" transform="translate(3.25 6)"/>
</clipPath>
</defs>
</svg>
